<svg class="logotype-small" xmlns="http://www.w3.org/2000/svg" viewBox="0 0 228 110">
	<style>.primary{fill:#298ff2}.secondary{fill:#fff;}</style>
    <path class="primary" d="M215.4.023h-8.862c-4.898 0-9.319 2.7-11.249 7.667l-24.241 61.707-2.075-57.38C167.997 3.09 163.182.022 156.769.022h-12.93c-4.898 0-9.34 2.724-11.25 7.69l-24.074 61.684h-.374l-1.785-57.312C105.92 5.012 100.586 0 94.152 0H82.26c-1.287 0-2.511.229-3.673.64 4.752 7.394 6.62 15.862 5.25 24.812l-7.948 45.25 3.84 27.831C80.64 105.125 85.767 110 91.827 110h18.928c4.919 0 9.36-3.25 11.27-8.263l22.249-57.746 2.635 53.741c.582 6.958 5.853 12.268 12.183 12.268h18.804c4.649 0 8.904-2.907 10.958-7.507l37.525-83.519C230.406 10.025 224.49.023 215.4.023z"/>
    <path class="secondary" d="M68.963 11.601c-2.685-5.77-7.902-10.143-14.44-11.31-4.38-.779-8.65.045-12.304 2.014L9.53 17.531C1.41 21.332-2.223 31.246 1.41 39.695c3.632 8.449 13.185 12.227 21.307 8.449l4.38-2.038-7.33 40c-1.804 11.15 5.416 21.729 16.113 23.606 10.72 1.878 20.89-5.632 22.695-16.76l11.776-67.43.264-1.602c.727-4.35.066-8.61-1.65-12.319z"/>
</svg>