<svg viewBox="0 0 21 25" fill="none" xmlns="http://www.w3.org/2000/svg">
<g clip-path="url(#clip0)">
<path fill-rule="evenodd" clip-rule="evenodd" d="M2.69263 -6.10352e-05H18.0251C18.3785 0.00100305 18.7171 0.13822 18.967 0.381628C19.2169 0.625037 19.3578 0.954864 19.3589 1.29909V23.7021C19.3574 24.0457 19.2168 24.3747 18.9675 24.6178C18.7183 24.8608 18.3806 24.9982 18.0279 24.9999H2.69263C2.33936 24.9992 2.00075 24.8623 1.75082 24.6191C1.5009 24.3759 1.35998 24.0462 1.35889 23.7021V1.29909C1.35998 0.954864 1.50085 0.625037 1.75074 0.381628C2.00063 0.13822 2.33924 0.00100305 2.69263 -6.10352e-05ZM5.48484 19.987L6.84067 18.283L7.20103 19.987H5.48484ZM7.39385 20.881C7.46043 21.1428 7.49019 21.2598 7.95764 21.2808L7.96179 21.2794H8.63004L7.66356 17.5756H6.99531C6.3312 17.5756 6.27597 17.5985 5.91699 18.0315L3.20394 21.2808L3.41367 21.281C4.07192 21.2819 4.31103 21.2823 4.4844 21.1757C4.58331 21.1149 4.66082 21.0193 4.78255 20.8691L4.78897 20.8612L4.99883 20.6016H7.32943L7.3888 20.8612L7.39385 20.881ZM13.0265 17.9735C12.9937 18.0568 12.9341 18.1275 12.8567 18.1752C12.7366 18.2478 12.5281 18.2613 12.1291 18.2613H11.4801L10.5923 21.2805C9.56512 21.2805 9.4878 21.259 9.65486 20.7036L10.3728 18.2559H8.90653C9.09568 17.6345 9.14539 17.5834 9.87301 17.5834H13.1466C13.1143 17.7129 13.0742 17.8405 13.0265 17.9654V17.9735ZM14.6421 18.2551H15.5105C16.5074 18.2551 16.4977 18.5658 16.4176 18.8186C16.25 19.4105 16.2384 19.4105 15.2314 19.4104L15.1902 19.4104H14.3024L14.6421 18.2551ZM14.1133 20.0613H15.0121L15.0107 20.0667C17.0665 20.0667 17.4062 19.3525 17.565 18.824C17.7237 18.2955 17.7141 17.5961 15.6789 17.5961H14.7125H14.1933C13.6911 17.6331 13.6317 17.8394 13.5562 18.1013C13.5493 18.1252 13.5423 18.1496 13.5347 18.1744L12.7961 20.6947C12.7063 20.992 12.6967 21.1291 12.7961 21.2085C12.9407 21.3001 13.3738 21.2932 13.6287 21.2892H13.6288H13.6289H13.6289H13.629C13.6733 21.2885 13.7122 21.2878 13.7432 21.2878L13.9227 20.6961L14.1133 20.0613ZM3.99725 9.61771L3.92959 9.57467C3.92782 9.52765 3.91523 9.48161 3.89277 9.43994C3.87031 9.39828 3.83854 9.36206 3.79981 9.33394V9.16314V8.96409V8.82961C3.79981 8.79598 3.81914 8.79329 3.83709 8.79464C3.87937 8.81996 3.91832 8.85022 3.95307 8.88475C4.02527 8.94843 4.10668 9.00144 4.19469 9.0421C4.27657 9.09472 4.37272 9.12235 4.47082 9.12144H4.56609C4.59012 9.12485 4.61239 9.1357 4.6296 9.15238C4.63927 9.16179 4.64065 9.17524 4.6296 9.20348C4.6035 9.24055 4.57238 9.27403 4.5371 9.303C4.53495 9.3051 4.51721 9.31966 4.49001 9.342L4.4899 9.34209C4.41216 9.40592 4.25739 9.53302 4.16845 9.61367L3.99725 9.61771ZM4.03315 6.36578C4.20849 5.94215 4.84499 4.75193 5.81147 5.17825C6.66749 5.55751 6.60951 6.72083 6.26571 7.44707C5.76591 8.50145 4.99548 9.17524 4.26924 8.78254C3.49468 8.36428 3.75701 7.03419 4.03315 6.36175V6.36578ZM18.1783 10.5215C18.152 10.4246 18.0002 10.3735 18.0002 10.3735C18.0002 10.2552 17.8262 10.2162 17.8262 10.2162L17.8165 10.2041C17.782 10.0696 17.6301 10.1019 17.6301 10.1019V10.0723C17.6039 9.98351 17.4603 10.0131 17.4603 10.0131C17.3954 9.90686 17.2684 10.001 17.2684 10.001C17.257 10.0219 17.2401 10.0395 17.2195 10.052C17.1989 10.0645 17.1753 10.0715 17.151 10.0723C16.9646 10.0817 16.9467 10.1785 16.9467 10.1785L16.8984 10.313C16.781 10.5511 16.8459 10.6439 16.8459 10.6439C16.8689 10.6874 16.8892 10.7324 16.9067 10.7783C16.9222 10.8955 16.9514 11.0105 16.9936 11.1213C16.8929 11.1388 16.8763 11.2558 16.8763 11.2558C16.8445 11.3661 16.5021 11.7292 16.5021 11.7292C16.411 11.7762 16.4759 11.8906 16.4759 11.8906C16.3269 12.0434 16.1601 12.1788 15.9788 12.294C15.533 12.5811 15.1262 12.9218 14.768 13.3081C14.4465 13.2636 14.1195 13.2736 13.8015 13.3376V13.2785C13.5841 13.335 13.3739 13.4148 13.1747 13.5165C13.1048 13.5366 13.0305 13.5366 12.9607 13.5165C12.4981 13.2785 11.6725 13.3511 11.6725 13.3511C11.4954 13.3856 11.3207 13.4305 11.1492 13.4856L10.3415 13.5206L10.2932 13.3861C10.2766 13.3484 10.2145 13.3255 10.2145 13.3255H10.2062C10.2061 13.2802 10.2 13.235 10.1882 13.1911L10.1689 12.7109L10.3746 12.442C10.4368 12.442 10.3263 11.791 10.3263 11.791C10.3456 11.6902 10.1744 11.3176 10.1744 11.3176C10.1878 11.2324 10.1806 11.1452 10.1535 11.0631C10.1265 10.9809 10.0802 10.906 10.0184 10.8442C9.95986 10.7715 9.91328 10.6902 9.88035 10.6035C9.85688 10.508 9.55865 10.3534 9.35431 10.2848C9.14997 10.2162 8.77718 10.2848 8.34365 10.5537C7.91011 10.8227 7.83003 11.3916 7.83003 11.4763C7.83003 11.5212 7.87419 11.6615 7.91285 11.7844L7.91285 11.7844C7.94719 11.8935 7.97719 11.9889 7.9681 11.9914C7.96574 11.9921 7.9625 11.9922 7.95874 11.9923C7.93165 11.9933 7.87748 11.9952 7.93082 12.2066C7.99157 12.4473 8.29394 12.6302 8.29394 12.6302C8.35883 12.6504 8.48448 13.0727 8.53418 13.2516L8.47757 13.2731L8.43201 13.3578L8.32708 13.4345C8.24653 13.4499 8.16476 13.4584 8.0827 13.46C7.6982 13.3683 7.29796 13.3583 6.90911 13.4304L6.27538 13.1184L6.23258 13.1816C6.04812 13.1242 5.85416 13.1014 5.66097 13.1144C5.66097 13.1144 5.20673 12.2254 4.79114 11.904V11.8717C4.8166 11.8552 4.80729 11.8067 4.79882 11.7626C4.79489 11.7421 4.79114 11.7226 4.79114 11.7077C4.79114 11.6606 4.66136 11.518 4.66136 11.518L4.48187 11.2369C4.48187 11.2369 4.42112 11.1025 4.39765 11.015C4.3962 11.005 4.39201 10.9955 4.3855 10.9876C4.37899 10.9797 4.37041 10.9736 4.36067 10.97C4.35092 10.9664 4.34036 10.9655 4.33011 10.9673C4.31985 10.969 4.31027 10.9735 4.30238 10.9801C4.26924 10.8873 4.25958 10.7904 4.29134 10.7662C4.37485 10.5475 4.44041 10.3226 4.48739 10.0938C4.49488 10.0333 4.4078 9.84035 4.35476 9.72279L4.35476 9.72278L4.35472 9.7227C4.33935 9.68864 4.32684 9.66092 4.32033 9.6446C4.50534 9.48591 4.85327 9.19003 4.94302 9.13893C5.63336 8.73546 6.24086 8.21634 6.52666 7.4659C6.97539 6.28912 6.75448 5.27912 5.97439 4.89314L5.94402 4.87834L5.90674 4.86086L5.8736 4.84607C5.12665 4.59861 4.27477 5.01552 3.74734 6.1506C3.40908 6.87818 3.39389 7.65149 3.57752 8.46649C3.62058 8.70524 3.63356 8.94822 3.61618 9.19003V9.24114L3.39941 9.27745C3.31105 9.31645 3.33314 9.37563 3.33314 9.37563L3.38975 9.69571L3.38008 9.70647C3.34839 9.71204 3.31996 9.72889 3.30031 9.75375C3.28066 9.7786 3.2712 9.80969 3.27377 9.84096L3.2641 9.85172C3.15089 9.87054 3.15779 10.0373 3.15779 10.0373C3.13698 10.0408 3.11727 10.0489 3.10018 10.061C3.08309 10.0731 3.06907 10.0888 3.0592 10.107C3.04933 10.1252 3.04388 10.1453 3.04326 10.1659C3.04264 10.1864 3.04687 10.2069 3.05562 10.2256C2.95629 10.2889 3.01394 10.373 3.05336 10.4305C3.05996 10.4401 3.06605 10.449 3.07081 10.4569C3.10394 10.5121 3.25582 10.8429 3.25582 10.8429L3.06667 11.3284C2.84438 11.8529 2.62347 12.3734 2.62209 12.3734C2.6157 12.3899 2.6041 12.404 2.58895 12.4137L2.5641 12.4285C2.5641 12.4285 2.54477 12.4433 2.53924 12.4917C2.60459 12.5626 2.68653 12.617 2.7781 12.6504C2.8996 12.7109 2.94931 12.719 2.99211 12.7123C3.0211 12.676 3.0211 12.6585 3.01972 12.6491C3.0188 12.6428 3.01911 12.6365 3.01942 12.6302C3.01957 12.6271 3.01972 12.624 3.01972 12.6208C3.01533 12.605 3.01533 12.5883 3.01972 12.5724L3.37732 11.7144L3.51539 11.3943L3.54576 11.432C3.53889 11.4343 3.53265 11.4382 3.52747 11.4432C3.5223 11.4482 3.51831 11.4543 3.51581 11.4609C3.51331 11.4676 3.51234 11.4747 3.51298 11.4818C3.51363 11.4889 3.51586 11.4957 3.51953 11.5019C3.5264 11.5194 3.53113 11.5343 3.53526 11.5472C3.54442 11.5759 3.55064 11.5954 3.57062 11.6149C3.6013 11.6404 3.62182 11.6756 3.62861 11.7144C3.63538 11.7396 3.63611 11.772 3.6368 11.8027C3.63766 11.8408 3.63846 11.8763 3.6507 11.8919L3.68798 11.947C3.6923 11.9747 3.70161 12.0022 3.71182 12.0322C3.7244 12.0693 3.73834 12.1104 3.74596 12.1609C3.75977 12.2523 3.79153 12.2214 3.79153 12.2214H3.8081C3.82159 12.2536 3.83691 12.2908 3.854 12.3324L3.85402 12.3325C4.03978 12.7843 4.43492 13.7455 4.97477 14.232C5.13012 14.2642 5.27744 14.3259 5.40831 14.4136L5.39588 14.4324L5.3517 14.505C5.3517 14.505 5.50081 14.5776 5.61955 14.6503C5.92039 14.831 6.23206 14.994 6.5529 15.1384L6.71723 15.97C5.41626 16.3129 4.22812 16.8324 3.20394 17.4909C5.2446 16.5736 7.72983 16.0357 10.4111 16.0357C13.091 16.0357 15.5776 16.5736 17.6224 17.4962C16.0872 16.5082 14.181 15.8307 12.0801 15.5937C12.2344 15.2907 12.552 15.1479 12.552 15.1479C12.661 15.0752 13.6054 14.973 13.6054 14.973V14.9017C14.7763 14.6476 15.3561 14.2185 15.3561 14.2185C15.5909 14.1809 15.6171 14.1217 15.6171 14.1217C15.6679 14.0687 15.7233 14.0201 15.7828 13.9765C16.4538 13.5353 17.1635 12.3128 17.1635 12.3128C17.1819 12.3202 17.2017 12.3235 17.2215 12.3227C17.2414 12.3219 17.2608 12.3169 17.2785 12.3081C17.2962 12.2993 17.3117 12.2869 17.3241 12.2717C17.3364 12.2565 17.3452 12.2389 17.3499 12.2201C17.4065 12.1434 17.7337 11.7332 17.7337 11.7332C17.829 11.6485 17.7723 11.5812 17.7723 11.5812L17.724 11.5221L17.742 11.5046C17.7655 11.4787 17.7936 11.4188 17.8191 11.3643C17.8401 11.3195 17.8594 11.2783 17.8731 11.2625C17.9205 11.1858 17.963 11.1063 18.0002 11.0245C18.0358 10.9328 18.0763 10.843 18.1217 10.7555C18.1472 10.7242 18.1654 10.688 18.1752 10.6492C18.1849 10.6104 18.186 10.5701 18.1783 10.5309V10.5215ZM5.25392 21.7758H4.22531H3.94917C3.68811 21.7949 3.65781 21.9161 3.61561 22.085L3.60814 22.1147L3.21879 23.5927C3.17598 23.7568 3.17184 23.8362 3.21879 23.8779C3.2901 23.9314 3.51587 23.927 3.65044 23.9245H3.65046H3.65048C3.67481 23.924 3.69616 23.9236 3.71307 23.9236L3.95331 23.0225H5.22216C5.32157 22.6621 5.30086 22.6365 4.8977 22.6365H4.06238L4.1825 22.1672H5.55214C5.57689 22.0947 5.59627 22.0205 5.61013 21.9453C5.6296 21.7759 5.47825 21.7764 5.29028 21.7771L5.25392 21.7772V21.7758ZM5.68953 23.5928L6.17691 21.7758C6.71838 21.7759 6.76487 21.79 6.68086 22.0946L6.19348 23.9236C5.64673 23.9236 5.60531 23.9115 5.68953 23.5928ZM9.27219 22.0704L8.94635 23.2902L8.17593 22.0031C8.04234 21.7715 7.99018 21.7715 7.68303 21.7718L7.65127 21.7718H7.37513L7.01339 23.1342L6.88775 23.5874C6.80353 23.9102 6.84495 23.9223 7.39032 23.9223L7.80452 22.3918L8.58047 23.6708L8.58737 23.6827C8.7067 23.8899 8.72535 23.9223 9.08442 23.9223H9.37298L9.95011 21.7704C9.40888 21.7704 9.35089 21.7785 9.2791 22.0677L9.27219 22.0704ZM13.8092 23.5379H14.4071H14.4126C14.6266 23.5379 14.7232 23.5513 14.7647 23.593C14.8216 23.645 14.7789 23.7874 14.7515 23.8786C14.7464 23.8958 14.7417 23.9112 14.7384 23.9239H13.6215C13.1907 23.9239 13.1189 23.9239 13.2073 23.589L13.6891 21.7761C13.7071 21.7761 13.7294 21.7757 13.7547 21.7752C13.8924 21.7726 14.1164 21.7684 14.1875 21.8218C14.24 21.8635 14.2345 21.9482 14.1875 22.1163L13.8092 23.5379ZM15.5107 22.4179C15.4049 22.8654 15.8832 22.9346 16.3081 22.9962C16.366 23.0045 16.4229 23.0128 16.4771 23.0218C16.6456 23.0514 16.9549 23.1267 16.9065 23.3069L16.9033 23.3201C16.8915 23.3691 16.8646 23.4815 16.8071 23.5046C16.628 23.5257 16.4475 23.5325 16.2673 23.5248H15.7426C15.5327 23.5248 15.4237 23.5329 15.3602 23.5786C15.2966 23.6243 15.2594 23.705 15.2028 23.9269H16.1692C17.0446 23.9269 17.4119 23.6082 17.4892 23.2854C17.6166 22.814 17.1146 22.7356 16.6554 22.664C16.5225 22.6433 16.3932 22.6231 16.2838 22.5941C16.132 22.5511 16.085 22.4812 16.1016 22.4139L16.1032 22.4076L16.1072 22.3907C16.1201 22.3342 16.1477 22.2137 16.2051 22.192C16.3699 22.1667 16.537 22.1582 16.7036 22.1665H17.2696C17.6687 22.1665 17.7004 22.1409 17.7998 21.7724H16.8237C16.0381 21.7724 15.6073 22.0118 15.5079 22.4179H15.5107ZM11.9038 21.7724H12.2545L12.7667 23.9202H12.4147C12.1692 23.9084 12.1531 23.8395 12.1182 23.6901L12.115 23.6768L12.0833 23.5261H10.86L10.7509 23.6768L10.7445 23.6854C10.6782 23.7737 10.6365 23.8294 10.5815 23.8646C10.4875 23.9247 10.3551 23.9246 9.99599 23.9243H9.99596L9.91147 23.9242L11.3377 22.0414C11.5269 21.7858 11.5586 21.7724 11.9038 21.7724ZM11.8251 22.1745L11.1113 23.1644H12.0143L11.8251 22.1745ZM18.0178 24.1568H17.9074L17.9212 24.0922H18.2167L18.2028 24.1568H18.0965L18.0358 24.4405H17.9585L18.0178 24.1568ZM18.364 24.0937H18.2563L18.1859 24.442H18.259L18.3115 24.165L18.346 24.442H18.4054L18.5545 24.165L18.491 24.442H18.5642L18.6387 24.0937H18.5297L18.3916 24.3452L18.364 24.0937Z" fill="#78D6FF"/>
</g>
<defs>
<clipPath id="clip0">
<rect width="20" height="25" fill="white" transform="translate(0.0258789)"/>
</clipPath>
</defs>
</svg>
